<mxfile host="65bd71144e" modified="2020-12-30T15:24:16.664Z" agent="5.0 (Windows NT 10.0; Win64; x64) AppleWebKit/537.36 (KHTML, like Gecko) Code/1.52.1 Chrome/83.0.4103.122 Electron/9.3.5 Safari/537.36" version="13.10.0" etag="04FPgaIJ0oM-P9hz9kQA" type="embed">
    <diagram id="mpSlv0D-25zA7CVjeN_R" name="Page-1">
        <mxGraphModel dx="768" dy="352" grid="1" gridSize="10" guides="1" tooltips="1" connect="1" arrows="1" fold="1" page="1" pageScale="1" pageWidth="827" pageHeight="1169" math="0" shadow="0">
            <root>
                <mxCell id="0"/>
                <mxCell id="1" parent="0"/>
                <mxCell id="69" value="Alternative" style="shape=umlFrame;whiteSpace=wrap;html=1;swimlaneFillColor=#ffffff;" vertex="1" parent="1">
                    <mxGeometry x="46" y="538" width="720" height="172" as="geometry"/>
                </mxCell>
                <mxCell id="27" value="Alternative" style="shape=umlFrame;whiteSpace=wrap;html=1;swimlaneFillColor=#ffffff;" vertex="1" parent="1">
                    <mxGeometry x="46" y="190" width="560" height="110" as="geometry"/>
                </mxCell>
                <mxCell id="12" style="rounded=0;orthogonalLoop=1;jettySize=auto;html=1;exitX=0.5;exitY=1;exitDx=0;exitDy=0;endArrow=none;endFill=0;dashed=1;" edge="1" parent="1" source="82">
                    <mxGeometry relative="1" as="geometry">
                        <mxPoint x="361" y="760" as="targetPoint"/>
                    </mxGeometry>
                </mxCell>
                <mxCell id="2" value="Application" style="html=1;" vertex="1" parent="1">
                    <mxGeometry x="306" y="30" width="110" height="50" as="geometry"/>
                </mxCell>
                <mxCell id="4" value="Base donnÃ©es" style="html=1;" vertex="1" parent="1">
                    <mxGeometry x="496" y="30" width="110" height="50" as="geometry"/>
                </mxCell>
                <mxCell id="13" style="rounded=0;orthogonalLoop=1;jettySize=auto;html=1;dashed=1;endArrow=none;endFill=0;" edge="1" parent="1">
                    <mxGeometry relative="1" as="geometry">
                        <mxPoint x="181" y="760" as="targetPoint"/>
                        <mxPoint x="181" y="110" as="sourcePoint"/>
                    </mxGeometry>
                </mxCell>
                <mxCell id="5" value="Client" style="shape=umlActor;verticalLabelPosition=bottom;verticalAlign=top;html=1;" vertex="1" parent="1">
                    <mxGeometry x="166" y="20" width="30" height="60" as="geometry"/>
                </mxCell>
                <mxCell id="8" value="Station" style="shape=umlActor;verticalLabelPosition=bottom;verticalAlign=top;html=1;" vertex="1" parent="1">
                    <mxGeometry x="716" y="20" width="30" height="60" as="geometry"/>
                </mxCell>
                <mxCell id="15" style="rounded=0;orthogonalLoop=1;jettySize=auto;html=1;exitX=0.5;exitY=1;exitDx=0;exitDy=0;endArrow=none;endFill=0;dashed=1;" edge="1" parent="1" source="84">
                    <mxGeometry relative="1" as="geometry">
                        <mxPoint x="551" y="760" as="targetPoint"/>
                        <mxPoint x="550.5" y="80" as="sourcePoint"/>
                    </mxGeometry>
                </mxCell>
                <mxCell id="17" style="rounded=0;orthogonalLoop=1;jettySize=auto;html=1;exitX=0.5;exitY=0.5;exitDx=0;exitDy=0;exitPerimeter=0;dashed=1;endArrow=none;endFill=0;" edge="1" parent="1">
                    <mxGeometry relative="1" as="geometry">
                        <mxPoint x="732" y="760" as="targetPoint"/>
                        <mxPoint x="731.5" y="50" as="sourcePoint"/>
                    </mxGeometry>
                </mxCell>
                <mxCell id="19" value="" style="endArrow=block;startArrow=none;endFill=1;startFill=0;html=1;entryX=-0.1;entryY=0.018;entryDx=0;entryDy=0;entryPerimeter=0;" edge="1" parent="1" target="82">
                    <mxGeometry width="160" relative="1" as="geometry">
                        <mxPoint x="182" y="120" as="sourcePoint"/>
                        <mxPoint x="362" y="120" as="targetPoint"/>
                    </mxGeometry>
                </mxCell>
                <mxCell id="20" value="S'inscrire" style="text;html=1;align=center;verticalAlign=middle;resizable=0;points=[];autosize=1;" vertex="1" parent="1">
                    <mxGeometry x="246" y="100" width="60" height="20" as="geometry"/>
                </mxCell>
                <mxCell id="21" value="" style="endArrow=block;startArrow=none;endFill=1;startFill=0;html=1;entryX=-0.2;entryY=0.082;entryDx=0;entryDy=0;entryPerimeter=0;" edge="1" parent="1">
                    <mxGeometry width="160" relative="1" as="geometry">
                        <mxPoint x="182" y="160" as="sourcePoint"/>
                        <mxPoint x="355" y="160.01999999999998" as="targetPoint"/>
                    </mxGeometry>
                </mxCell>
                <mxCell id="22" value="Se connecter" style="text;html=1;align=center;verticalAlign=middle;resizable=0;points=[];autosize=1;" vertex="1" parent="1">
                    <mxGeometry x="230" y="140" width="90" height="20" as="geometry"/>
                </mxCell>
                <mxCell id="23" value="" style="endArrow=block;startArrow=none;endFill=1;startFill=0;html=1;" edge="1" parent="1">
                    <mxGeometry width="160" relative="1" as="geometry">
                        <mxPoint x="180" y="330" as="sourcePoint"/>
                        <mxPoint x="355" y="330" as="targetPoint"/>
                    </mxGeometry>
                </mxCell>
                <mxCell id="24" value="Commande" style="text;html=1;align=center;verticalAlign=middle;resizable=0;points=[];autosize=1;" vertex="1" parent="1">
                    <mxGeometry x="234" y="310" width="80" height="20" as="geometry"/>
                </mxCell>
                <mxCell id="25" value="" style="endArrow=block;startArrow=none;endFill=1;startFill=0;html=1;" edge="1" parent="1">
                    <mxGeometry width="160" relative="1" as="geometry">
                        <mxPoint x="359" y="180" as="sourcePoint"/>
                        <mxPoint x="545" y="180" as="targetPoint"/>
                    </mxGeometry>
                </mxCell>
                <mxCell id="26" value="Verification" style="text;html=1;align=center;verticalAlign=middle;resizable=0;points=[];autosize=1;" vertex="1" parent="1">
                    <mxGeometry x="421" y="160" width="70" height="20" as="geometry"/>
                </mxCell>
                <mxCell id="29" value="" style="endArrow=none;endFill=0;endSize=12;html=1;exitX=0.002;exitY=0.509;exitDx=0;exitDy=0;exitPerimeter=0;entryX=0.998;entryY=0.509;entryDx=0;entryDy=0;entryPerimeter=0;dashed=1;" edge="1" parent="1" source="27" target="27">
                    <mxGeometry width="160" relative="1" as="geometry">
                        <mxPoint x="87" y="244" as="sourcePoint"/>
                        <mxPoint x="604" y="250" as="targetPoint"/>
                    </mxGeometry>
                </mxCell>
                <mxCell id="30" value="" style="endArrow=none;startArrow=classic;endFill=0;startFill=1;html=1;dashed=1;" edge="1" parent="1">
                    <mxGeometry width="160" relative="1" as="geometry">
                        <mxPoint x="367" y="215" as="sourcePoint"/>
                        <mxPoint x="546" y="215" as="targetPoint"/>
                    </mxGeometry>
                </mxCell>
                <mxCell id="31" value="Existe" style="text;html=1;align=center;verticalAlign=middle;resizable=0;points=[];autosize=1;" vertex="1" parent="1">
                    <mxGeometry x="432" y="195" width="50" height="20" as="geometry"/>
                </mxCell>
                <mxCell id="32" value="" style="endArrow=none;startArrow=classic;endFill=0;startFill=1;html=1;dashed=1;exitX=0.9;exitY=0.205;exitDx=0;exitDy=0;exitPerimeter=0;" edge="1" parent="1">
                    <mxGeometry width="160" relative="1" as="geometry">
                        <mxPoint x="182.99999999999977" y="235.04999999999995" as="sourcePoint"/>
                        <mxPoint x="358" y="235" as="targetPoint"/>
                    </mxGeometry>
                </mxCell>
                <mxCell id="33" value="Connecter" style="text;html=1;align=center;verticalAlign=middle;resizable=0;points=[];autosize=1;" vertex="1" parent="1">
                    <mxGeometry x="235" y="215" width="70" height="20" as="geometry"/>
                </mxCell>
                <mxCell id="36" value="" style="endArrow=none;startArrow=classic;endFill=0;startFill=1;html=1;dashed=1;exitX=1.3;exitY=0.256;exitDx=0;exitDy=0;exitPerimeter=0;" edge="1" parent="1">
                    <mxGeometry width="160" relative="1" as="geometry">
                        <mxPoint x="367" y="266.15999999999997" as="sourcePoint"/>
                        <mxPoint x="547" y="266" as="targetPoint"/>
                    </mxGeometry>
                </mxCell>
                <mxCell id="37" value="Existe pas" style="text;html=1;align=center;verticalAlign=middle;resizable=0;points=[];autosize=1;" vertex="1" parent="1">
                    <mxGeometry x="422" y="246" width="70" height="20" as="geometry"/>
                </mxCell>
                <mxCell id="38" value="" style="endArrow=none;startArrow=classic;endFill=0;startFill=1;html=1;dashed=1;exitX=0.9;exitY=0.289;exitDx=0;exitDy=0;exitPerimeter=0;" edge="1" parent="1">
                    <mxGeometry width="160" relative="1" as="geometry">
                        <mxPoint x="182.99999999999977" y="286.2900000000001" as="sourcePoint"/>
                        <mxPoint x="357" y="286" as="targetPoint"/>
                    </mxGeometry>
                </mxCell>
                <mxCell id="39" value="Msg Erreur" style="text;html=1;align=center;verticalAlign=middle;resizable=0;points=[];autosize=1;" vertex="1" parent="1">
                    <mxGeometry x="234" y="266" width="70" height="20" as="geometry"/>
                </mxCell>
                <mxCell id="40" value="" style="endArrow=block;startArrow=none;endFill=1;startFill=0;html=1;entryX=-0.1;entryY=0.333;entryDx=0;entryDy=0;entryPerimeter=0;" edge="1" parent="1" target="84">
                    <mxGeometry width="160" relative="1" as="geometry">
                        <mxPoint x="361" y="350" as="sourcePoint"/>
                        <mxPoint x="551" y="350" as="targetPoint"/>
                    </mxGeometry>
                </mxCell>
                <mxCell id="41" value="Enregister" style="text;html=1;align=center;verticalAlign=middle;resizable=0;points=[];autosize=1;" vertex="1" parent="1">
                    <mxGeometry x="423" y="330" width="70" height="20" as="geometry"/>
                </mxCell>
                <mxCell id="42" value="" style="endArrow=none;startArrow=classic;endFill=0;startFill=1;html=1;dashed=1;" edge="1" parent="1">
                    <mxGeometry width="160" relative="1" as="geometry">
                        <mxPoint x="367" y="380" as="sourcePoint"/>
                        <mxPoint x="734" y="380" as="targetPoint"/>
                    </mxGeometry>
                </mxCell>
                <mxCell id="43" value="Acceptation du Commande" style="text;html=1;align=center;verticalAlign=middle;resizable=0;points=[];autosize=1;" vertex="1" parent="1">
                    <mxGeometry x="561" y="360" width="160" height="20" as="geometry"/>
                </mxCell>
                <mxCell id="44" value="" style="endArrow=classic;startArrow=none;endFill=1;startFill=0;html=1;entryX=0.1;entryY=0.436;entryDx=0;entryDy=0;entryPerimeter=0;" edge="1" parent="1">
                    <mxGeometry width="160" relative="1" as="geometry">
                        <mxPoint x="359" y="407" as="sourcePoint"/>
                        <mxPoint x="545" y="406.9799999999999" as="targetPoint"/>
                    </mxGeometry>
                </mxCell>
                <mxCell id="45" value="Commande Accepter" style="text;html=1;align=center;verticalAlign=middle;resizable=0;points=[];autosize=1;" vertex="1" parent="1">
                    <mxGeometry x="395" y="387" width="130" height="20" as="geometry"/>
                </mxCell>
                <mxCell id="46" value="" style="endArrow=none;startArrow=classic;endFill=0;startFill=1;html=1;dashed=1;exitX=1.2;exitY=0.566;exitDx=0;exitDy=0;exitPerimeter=0;" edge="1" parent="1">
                    <mxGeometry width="160" relative="1" as="geometry">
                        <mxPoint x="182" y="455.26" as="sourcePoint"/>
                        <mxPoint x="353" y="455" as="targetPoint"/>
                    </mxGeometry>
                </mxCell>
                <mxCell id="47" value="Notifier" style="text;html=1;align=center;verticalAlign=middle;resizable=0;points=[];autosize=1;" vertex="1" parent="1">
                    <mxGeometry x="253" y="435" width="50" height="20" as="geometry"/>
                </mxCell>
                <mxCell id="48" value="" style="endArrow=none;startArrow=classic;endFill=0;startFill=1;html=1;" edge="1" parent="1">
                    <mxGeometry width="160" relative="1" as="geometry">
                        <mxPoint x="182" y="481" as="sourcePoint"/>
                        <mxPoint x="730" y="481" as="targetPoint"/>
                    </mxGeometry>
                </mxCell>
                <mxCell id="49" value="Livraison" style="text;html=1;align=center;verticalAlign=middle;resizable=0;points=[];autosize=1;glass=1;" vertex="1" parent="1">
                    <mxGeometry x="427" y="460" width="60" height="20" as="geometry"/>
                </mxCell>
                <mxCell id="50" value="" style="endArrow=classic;startArrow=none;endFill=1;startFill=0;html=1;" edge="1" parent="1">
                    <mxGeometry width="160" relative="1" as="geometry">
                        <mxPoint x="181" y="517" as="sourcePoint"/>
                        <mxPoint x="732" y="517" as="targetPoint"/>
                    </mxGeometry>
                </mxCell>
                <mxCell id="53" value="Code Validation" style="text;html=1;align=center;verticalAlign=middle;resizable=0;points=[];autosize=1;" vertex="1" parent="1">
                    <mxGeometry x="408" y="498" width="100" height="20" as="geometry"/>
                </mxCell>
                <mxCell id="55" value="" style="endArrow=none;startArrow=classic;endFill=0;startFill=1;html=1;dashed=1;" edge="1" parent="1">
                    <mxGeometry width="160" relative="1" as="geometry">
                        <mxPoint x="367" y="558" as="sourcePoint"/>
                        <mxPoint x="732" y="558" as="targetPoint"/>
                    </mxGeometry>
                </mxCell>
                <mxCell id="59" value="ValidÃ© la livraison" style="text;html=1;align=center;verticalAlign=middle;resizable=0;points=[];autosize=1;" vertex="1" parent="1">
                    <mxGeometry x="581" y="538" width="110" height="20" as="geometry"/>
                </mxCell>
                <mxCell id="63" value="Login et MP sont Corrects" style="text;html=1;strokeColor=none;fillColor=none;align=center;verticalAlign=middle;whiteSpace=wrap;rounded=0;" vertex="1" parent="1">
                    <mxGeometry x="50" y="221" width="130" height="24" as="geometry"/>
                </mxCell>
                <mxCell id="64" value="Login et MP sont Incorrects" style="text;html=1;strokeColor=none;fillColor=none;align=center;verticalAlign=middle;whiteSpace=wrap;rounded=0;" vertex="1" parent="1">
                    <mxGeometry x="56" y="260" width="110" height="30" as="geometry"/>
                </mxCell>
                <mxCell id="65" value="" style="endArrow=classic;startArrow=none;endFill=1;startFill=0;html=1;dashed=1;entryX=0.2;entryY=0.762;entryDx=0;entryDy=0;entryPerimeter=0;" edge="1" parent="1">
                    <mxGeometry width="160" relative="1" as="geometry">
                        <mxPoint x="358" y="588" as="sourcePoint"/>
                        <mxPoint x="545" y="587.91" as="targetPoint"/>
                    </mxGeometry>
                </mxCell>
                <mxCell id="66" value="Livrer avec succÃ¨s" style="text;html=1;align=center;verticalAlign=middle;resizable=0;points=[];autosize=1;" vertex="1" parent="1">
                    <mxGeometry x="405" y="568" width="110" height="20" as="geometry"/>
                </mxCell>
                <mxCell id="67" value="" style="endArrow=none;startArrow=classic;endFill=0;startFill=1;html=1;dashed=1;" edge="1" parent="1">
                    <mxGeometry width="160" relative="1" as="geometry">
                        <mxPoint x="367" y="432" as="sourcePoint"/>
                        <mxPoint x="552" y="432" as="targetPoint"/>
                    </mxGeometry>
                </mxCell>
                <mxCell id="68" value="Envoyer Au Client" style="text;html=1;align=center;verticalAlign=middle;resizable=0;points=[];autosize=1;" vertex="1" parent="1">
                    <mxGeometry x="406" y="412" width="110" height="20" as="geometry"/>
                </mxCell>
                <mxCell id="71" value="Peiment online" style="text;html=1;strokeColor=none;fillColor=none;align=center;verticalAlign=middle;whiteSpace=wrap;rounded=0;" vertex="1" parent="1">
                    <mxGeometry x="50" y="568" width="130" height="24" as="geometry"/>
                </mxCell>
                <mxCell id="72" value="Paiement en espÃ¨ces" style="text;html=1;strokeColor=none;fillColor=none;align=center;verticalAlign=middle;whiteSpace=wrap;rounded=0;" vertex="1" parent="1">
                    <mxGeometry x="50" y="642" width="130" height="24" as="geometry"/>
                </mxCell>
                <mxCell id="73" value="" style="endArrow=none;startArrow=classic;endFill=0;startFill=1;html=1;dashed=1;" edge="1" parent="1">
                    <mxGeometry width="160" relative="1" as="geometry">
                        <mxPoint x="366" y="666" as="sourcePoint"/>
                        <mxPoint x="731" y="666" as="targetPoint"/>
                    </mxGeometry>
                </mxCell>
                <mxCell id="74" value="ValidÃ© la livraison" style="text;html=1;align=center;verticalAlign=middle;resizable=0;points=[];autosize=1;" vertex="1" parent="1">
                    <mxGeometry x="580" y="646" width="110" height="20" as="geometry"/>
                </mxCell>
                <mxCell id="75" value="" style="endArrow=classic;startArrow=none;endFill=1;startFill=0;html=1;dashed=1;" edge="1" parent="1">
                    <mxGeometry width="160" relative="1" as="geometry">
                        <mxPoint x="360" y="696" as="sourcePoint"/>
                        <mxPoint x="545" y="696" as="targetPoint"/>
                    </mxGeometry>
                </mxCell>
                <mxCell id="76" value="Livrer avec succÃ¨s" style="text;html=1;align=center;verticalAlign=middle;resizable=0;points=[];autosize=1;" vertex="1" parent="1">
                    <mxGeometry x="404" y="676" width="110" height="20" as="geometry"/>
                </mxCell>
                <mxCell id="77" value="" style="endArrow=none;endFill=0;endSize=12;html=1;exitX=0.002;exitY=0.509;exitDx=0;exitDy=0;exitPerimeter=0;entryX=0.997;entryY=0.5;entryDx=0;entryDy=0;entryPerimeter=0;dashed=1;" edge="1" parent="1">
                    <mxGeometry width="160" relative="1" as="geometry">
                        <mxPoint x="47.440000000000055" y="600.098" as="sourcePoint"/>
                        <mxPoint x="763.8400000000001" y="599" as="targetPoint"/>
                    </mxGeometry>
                </mxCell>
                <mxCell id="78" value="" style="endArrow=classic;startArrow=none;endFill=1;startFill=0;html=1;" edge="1" parent="1">
                    <mxGeometry width="160" relative="1" as="geometry">
                        <mxPoint x="180" y="635" as="sourcePoint"/>
                        <mxPoint x="732" y="634.5" as="targetPoint"/>
                    </mxGeometry>
                </mxCell>
                <mxCell id="79" value="Payer" style="text;html=1;align=center;verticalAlign=middle;resizable=0;points=[];autosize=1;glass=1;" vertex="1" parent="1">
                    <mxGeometry x="434" y="612.5" width="50" height="20" as="geometry"/>
                </mxCell>
                <mxCell id="81" style="rounded=0;orthogonalLoop=1;jettySize=auto;html=1;exitX=0.5;exitY=0.5;exitDx=0;exitDy=0;exitPerimeter=0;dashed=1;endArrow=none;endFill=0;" edge="1" parent="1" source="5">
                    <mxGeometry relative="1" as="geometry">
                        <mxPoint x="181" y="110" as="targetPoint"/>
                        <mxPoint x="181" y="50" as="sourcePoint"/>
                    </mxGeometry>
                </mxCell>
                <mxCell id="82" value="" style="html=1;points=[];perimeter=orthogonalPerimeter;glass=1;fillColor=#EDEDED;gradientColor=none;" vertex="1" parent="1">
                    <mxGeometry x="356" y="110" width="10" height="610" as="geometry"/>
                </mxCell>
                <mxCell id="83" style="rounded=0;orthogonalLoop=1;jettySize=auto;html=1;exitX=0.5;exitY=1;exitDx=0;exitDy=0;endArrow=none;endFill=0;dashed=1;" edge="1" parent="1" source="2" target="82">
                    <mxGeometry relative="1" as="geometry">
                        <mxPoint x="361" y="760" as="targetPoint"/>
                        <mxPoint x="361" y="80" as="sourcePoint"/>
                    </mxGeometry>
                </mxCell>
                <mxCell id="84" value="" style="html=1;points=[];perimeter=orthogonalPerimeter;glass=1;fillColor=#EDEDED;gradientColor=none;" vertex="1" parent="1">
                    <mxGeometry x="546" y="165" width="10" height="555" as="geometry"/>
                </mxCell>
                <mxCell id="85" style="rounded=0;orthogonalLoop=1;jettySize=auto;html=1;exitX=0.5;exitY=1;exitDx=0;exitDy=0;endArrow=none;endFill=0;dashed=1;" edge="1" parent="1" target="84">
                    <mxGeometry relative="1" as="geometry">
                        <mxPoint x="551" y="760" as="targetPoint"/>
                        <mxPoint x="550.5" y="80" as="sourcePoint"/>
                    </mxGeometry>
                </mxCell>
            </root>
        </mxGraphModel>
    </diagram>
</mxfile>